<svg width="40" height="63" viewBox="0 0 40 63" fill="none" xmlns="http://www.w3.org/2000/svg">
<rect y="0.339111" width="39.8482" height="62.3391" rx="19.9241" fill="#D9D9D9"/>
<path d="M19.9241 10.3391C22.847 10.3391 25.2165 12.7086 25.2165 15.6315C25.2165 18.5544 22.847 20.9239 19.9241 20.9239C17.0012 20.9239 14.6317 18.5544 14.6317 15.6315C14.6317 12.7086 17.0012 10.3391 19.9241 10.3391ZM29.788 39.6274L25.8187 23.7503C25.7114 23.3209 25.4636 22.9397 25.1147 22.6673C24.7659 22.3949 24.336 22.247 23.8934 22.247H22.954C21.0759 23.1106 18.8532 23.1479 16.8942 22.247H15.9548C15.5122 22.247 15.0823 22.3949 14.7334 22.6673C14.3846 22.9397 14.1368 23.3209 14.0294 23.7503L10.0601 39.6274C9.74738 40.8783 10.6941 42.0934 11.9855 42.0934H16.6163V50.6936C16.6163 51.7897 17.5049 52.6782 18.601 52.6782H21.2472C22.3433 52.6782 23.2318 51.7897 23.2318 50.6936V42.0934H27.8626C29.1519 42.0934 30.1012 40.8802 29.788 39.6274Z" fill="white"/>
</svg>
