<svg width="40" height="63" viewBox="0 0 40 63" fill="none" xmlns="http://www.w3.org/2000/svg">
<rect width="39.8482" height="62.3391" rx="19.9241" fill="#ED85DA"/>
<path d="M19.9241 10C22.847 10 25.2165 12.3695 25.2165 15.2924C25.2165 18.2153 22.847 20.5848 19.9241 20.5848C17.0012 20.5848 14.6317 18.2153 14.6317 15.2924C14.6317 12.3695 17.0012 10 19.9241 10ZM29.788 39.2883L25.8187 23.4112C25.7114 22.9818 25.4636 22.6006 25.1147 22.3282C24.7659 22.0558 24.336 21.9079 23.8934 21.9079H22.954C21.0759 22.7714 18.8532 22.8087 16.8942 21.9079H15.9548C15.5122 21.9079 15.0823 22.0558 14.7334 22.3282C14.3846 22.6006 14.1368 22.9818 14.0294 23.4112L10.0601 39.2883C9.74738 40.5392 10.6941 41.7543 11.9855 41.7543H16.6163V50.3545C16.6163 51.4506 17.5049 52.3391 18.601 52.3391H21.2472C22.3433 52.3391 23.2318 51.4506 23.2318 50.3545V41.7543H27.8626C29.1519 41.7543 30.1012 40.5411 29.788 39.2883Z" fill="white"/>
</svg>
