<svg width="22" height="25" viewBox="0 0 22 25" fill="none" xmlns="http://www.w3.org/2000/svg">
<path fill-rule="evenodd" clip-rule="evenodd" d="M5.20834 0C4.10377 0 3.20834 0.895431 3.20834 2V11H3.60754L3.60748 11.0001H1.60417C0.71821 11.0001 0 11.7183 0 12.6043C0 13.4902 0.718211 14.2085 1.60417 14.2085H2.76251C2.75421 14.3601 2.75 14.5129 2.75 14.6666C2.75 17.8331 4.5339 20.5829 7.15152 21.9659L6.1973 24.1924C6.08418 24.4563 6.27779 24.75 6.56496 24.75H15.4351C15.7222 24.75 15.9158 24.4563 15.8027 24.1924L14.8485 21.9659C17.4661 20.5829 19.25 17.8331 19.25 14.6666C19.25 14.5129 19.2458 14.3601 19.2375 14.2085H20.3958C21.2818 14.2085 22 13.4902 22 12.6043C22 11.7183 21.2818 11.0001 20.3958 11.0001H18.3925L18.3925 11H19.25V2C19.25 0.895431 18.3546 0 17.25 0H5.20834Z" fill="#FFDA07"/>
</svg>
