<svg width="60" height="63" viewBox="0 0 60 63" fill="none" xmlns="http://www.w3.org/2000/svg">
<rect width="60" height="62.1018" rx="20" fill="#EDA885"/>
<path d="M49.7435 41.7136L50.9134 44.0706C51.2365 44.7214 50.9707 45.5109 50.3199 45.834L44.9367 48.5382C43.617 49.1933 42.0129 48.6364 41.3853 47.3002L36.2231 36.3136H24.7373C23.4278 36.3136 22.3176 35.3507 22.1323 34.0544C19.3457 14.548 19.5058 15.7597 19.4745 15.2627C19.4745 12.273 21.9676 9.86555 24.9882 10.0058C27.7241 10.1329 29.926 12.3827 29.9981 15.1206C30.0695 17.8287 28.0943 20.0892 25.5077 20.4688L25.8917 23.1569H36.5784C37.3051 23.1569 37.8941 23.7459 37.8941 24.4726V27.1039C37.8941 27.8306 37.3051 28.4196 36.5784 28.4196H26.6435L27.0195 31.051H37.8941C38.3937 31.051 38.8829 31.1932 39.3047 31.461C39.7264 31.7289 40.0632 32.1112 40.2756 32.5634L45.0051 42.6289L47.98 41.1201C48.6309 40.797 49.4204 41.0627 49.7435 41.7136ZM34.5521 38.945H32.537C31.8966 43.4022 28.0531 46.8391 23.4216 46.8391C18.3433 46.8391 14.2118 42.7076 14.2118 37.6293C14.2118 34.2163 16.078 31.2311 18.8434 29.6402C18.5381 27.5051 18.2806 25.7046 18.0632 24.1856C12.7281 26.3197 8.9491 31.5412 8.9491 37.6293C8.9491 45.6095 15.4414 52.1018 23.4216 52.1018C29.3315 52.1018 34.4245 48.5406 36.6697 43.4519L34.5521 38.945Z" fill="white"/>
</svg>
