<svg width="60" height="63" viewBox="0 0 60 63" fill="none" xmlns="http://www.w3.org/2000/svg">
<rect y="0.101807" width="60" height="62.1018" rx="20" fill="#D9D9D9"/>
<path d="M49.7435 41.8154L50.9134 44.1724C51.2365 44.8232 50.9707 45.6127 50.3199 45.9358L44.9367 48.64C43.617 49.2951 42.0129 48.7382 41.3853 47.402L36.2231 36.4154H24.7373C23.4278 36.4154 22.3176 35.4525 22.1323 34.1562C19.3457 14.6498 19.5058 15.8615 19.4745 15.3645C19.4745 12.3748 21.9676 9.96736 24.9882 10.1076C27.7241 10.2347 29.926 12.4845 29.9981 15.2224C30.0695 17.9305 28.0943 20.191 25.5077 20.5706L25.8917 23.2587H36.5784C37.3051 23.2587 37.8941 23.8477 37.8941 24.5744V27.2057C37.8941 27.9324 37.3051 28.5214 36.5784 28.5214H26.6435L27.0195 31.1528H37.8941C38.3937 31.1528 38.8829 31.295 39.3047 31.5628C39.7264 31.8307 40.0632 32.213 40.2756 32.6652L45.0051 42.7307L47.98 41.2219C48.6309 40.8988 49.4204 41.1646 49.7435 41.8154ZM34.5521 39.0468H32.537C31.8966 43.504 28.0531 46.9409 23.4216 46.9409C18.3433 46.9409 14.2118 42.8094 14.2118 37.7311C14.2118 34.3182 16.078 31.3329 18.8434 29.742C18.5381 27.6069 18.2806 25.8064 18.0632 24.2874C12.7281 26.4215 8.9491 31.643 8.9491 37.7311C8.9491 45.7113 15.4414 52.2036 23.4216 52.2036C29.3315 52.2036 34.4245 48.6424 36.6697 43.5537L34.5521 39.0468Z" fill="white"/>
</svg>
