<svg width="40" height="64" viewBox="0 0 40 64" fill="none" xmlns="http://www.w3.org/2000/svg">
<rect width="40" height="63.0987" rx="20" fill="#2563EB"/>
<path d="M20 10C22.9753 10 25.3873 12.412 25.3873 15.3873C25.3873 18.3627 22.9753 20.7747 20 20.7747C17.0247 20.7747 14.6127 18.3627 14.6127 15.3873C14.6127 12.412 17.0247 10 20 10ZM24.0405 22.1215H23.0843C21.1725 23.0006 18.9099 23.0385 16.9157 22.1215H15.9595C13.728 22.1215 11.919 23.9305 11.919 26.162V37.6101C11.919 38.7259 12.8235 39.6304 13.9392 39.6304H15.2861V51.0785C15.2861 52.1942 16.1906 53.0987 17.3063 53.0987H22.6937C23.8094 53.0987 24.7139 52.1942 24.7139 51.0785V39.6304H26.0608C27.1765 39.6304 28.081 38.7259 28.081 37.6101V26.162C28.081 23.9305 26.272 22.1215 24.0405 22.1215Z" fill="white"/>
</svg>
