<svg width="40" height="64" viewBox="0 0 40 64" fill="none" xmlns="http://www.w3.org/2000/svg">
<rect y="0.0987549" width="40" height="63.0987" rx="20" fill="#D9D9D9"/>
<path d="M20 10.0988C22.9753 10.0988 25.3873 12.5108 25.3873 15.4861C25.3873 18.4614 22.9753 20.8734 20 20.8734C17.0247 20.8734 14.6127 18.4614 14.6127 15.4861C14.6127 12.5108 17.0247 10.0988 20 10.0988ZM24.0405 22.2203H23.0843C21.1725 23.0993 18.9099 23.1373 16.9157 22.2203H15.9595C13.728 22.2203 11.919 24.0292 11.919 26.2608V37.7089C11.919 38.8246 12.8235 39.7291 13.9392 39.7291H15.2861V51.1772C15.2861 52.293 16.1906 53.1975 17.3063 53.1975H22.6937C23.8094 53.1975 24.7139 52.293 24.7139 51.1772V39.7291H26.0608C27.1765 39.7291 28.081 38.8246 28.081 37.7089V26.2608C28.081 24.0292 26.272 22.2203 24.0405 22.2203Z" fill="white"/>
</svg>
