<svg width="72" height="74" viewBox="0 0 72 74" fill="none" xmlns="http://www.w3.org/2000/svg">
<circle cx="36" cy="37" r="30.5" stroke="black" stroke-width="5"/>
<path d="M28.2664 21.1899H43.7336C44.6571 21.1899 45.4057 21.9552 45.4057 22.8991V34.8635H47.0779C48.0014 34.8635 48.75 35.6287 48.75 36.5726C48.75 37.5166 48.0014 38.2818 47.0779 38.2818H24.9221C23.9986 38.2818 23.25 37.5166 23.25 36.5726C23.25 35.6287 23.9986 34.8635 24.9221 34.8635H26.5943V22.8991C26.5943 21.9552 27.3429 21.1899 28.2664 21.1899Z" fill="#D9D9D9"/>
<path d="M30.0749 51.8345L29.233 51.7168L30.0749 51.8345ZM42.3432 51.8345L43.185 51.7168L42.3432 51.8345ZM42.4795 25.4583C42.9489 25.4583 43.3295 25.0778 43.3295 24.6083C43.3295 24.1389 42.9489 23.7583 42.4795 23.7583V25.4583ZM39.1352 23.7583C38.6658 23.7583 38.2852 24.1389 38.2852 24.6083C38.2852 25.0778 38.6658 25.4583 39.1352 25.4583V23.7583ZM28.2664 22.0399H43.7336V20.3399H28.2664V22.0399ZM44.5557 22.8991V34.8635H46.2557V22.8991H44.5557ZM45.4057 34.0135H26.5943V35.7135H45.4057V34.0135ZM27.4443 34.8635V22.8991H25.7443V34.8635H27.4443ZM45.4057 35.7135H47.0779V34.0135H45.4057V35.7135ZM47.0779 37.4318H24.9221V39.1318H47.0779V37.4318ZM24.9221 35.7135H26.5943V34.0135H24.9221V35.7135ZM24.1 36.5726C24.1 36.0805 24.4855 35.7135 24.9221 35.7135V34.0135C23.5117 34.0135 22.4 35.1769 22.4 36.5726H24.1ZM47.0779 35.7135C47.5145 35.7135 47.9 36.0805 47.9 36.5726H49.6C49.6 35.1769 48.4883 34.0135 47.0779 34.0135V35.7135ZM24.9221 37.4318C24.4855 37.4318 24.1 37.0648 24.1 36.5726H22.4C22.4 37.9684 23.5117 39.1318 24.9221 39.1318V37.4318ZM43.7336 22.0399C44.1702 22.0399 44.5557 22.407 44.5557 22.8991H46.2557C46.2557 21.5034 45.144 20.3399 43.7336 20.3399V22.0399ZM47.9 36.5726C47.9 37.0648 47.5145 37.4318 47.0779 37.4318V39.1318C48.4883 39.1318 49.6 37.9684 49.6 36.5726H47.9ZM28.2664 20.3399C26.856 20.3399 25.7443 21.5034 25.7443 22.8991H27.4443C27.4443 22.407 27.8298 22.0399 28.2664 22.0399V20.3399ZM25.7443 38.2818V38.9228H27.4443V38.2818H25.7443ZM46.2557 38.9228V38.2818H44.5557V38.9228H46.2557ZM36 49.387C41.6816 49.387 46.2557 44.6843 46.2557 38.9228H44.5557C44.5557 43.7808 40.7077 47.687 36 47.687V49.387ZM25.7443 38.9228C25.7443 44.6843 30.3184 49.387 36 49.387V47.687C31.2923 47.687 27.4443 43.7808 27.4443 38.9228H25.7443ZM29.9328 46.7101L29.233 51.7168L30.9167 51.9521L31.6164 46.9454L29.9328 46.7101ZM30.9025 53.6599H41.5155V51.9599H30.9025V53.6599ZM43.185 51.7168L42.4853 46.7101L40.8016 46.9454L41.5014 51.9521L43.185 51.7168ZM41.5155 53.6599C42.5617 53.6599 43.3254 52.7217 43.185 51.7168L41.5014 51.9521C41.5018 51.9555 41.5018 51.9575 41.5017 51.9585C41.5016 51.9596 41.5014 51.9605 41.5012 51.9612C41.5007 51.9628 41.4998 51.9643 41.499 51.9653C41.4981 51.9663 41.4989 51.965 41.5027 51.9632C41.5047 51.9622 41.5072 51.9613 41.5099 51.9607C41.5127 51.9601 41.5147 51.9599 41.5155 51.9599V53.6599ZM29.233 51.7168C29.0926 52.7217 29.8563 53.6599 30.9025 53.6599V51.9599C30.9033 51.9599 30.9053 51.9601 30.9081 51.9607C30.9108 51.9613 30.9133 51.9622 30.9153 51.9632C30.9191 51.965 30.9199 51.9663 30.919 51.9653C30.9182 51.9643 30.9173 51.9628 30.9168 51.9612C30.9166 51.9605 30.9164 51.9596 30.9163 51.9585C30.9163 51.9575 30.9162 51.9555 30.9167 51.9521L29.233 51.7168ZM42.4795 23.7583H39.1352V25.4583H42.4795V23.7583Z" fill="black"/>
<path d="M0 37H8" stroke="black" stroke-width="8"/>
<path d="M64 37H72" stroke="black" stroke-width="8"/>
<path d="M36.1613 1.00024L36.1254 9.00016" stroke="black" stroke-width="8"/>
<path d="M35.8746 64.9995L35.8387 72.9994" stroke="black" stroke-width="8"/>
</svg>
