<svg width="41" height="41" viewBox="0 0 41 41" fill="none" xmlns="http://www.w3.org/2000/svg">
<path d="M31.3812 22.7608H9.61885V23.5023C9.61885 27.3526 11.8958 31.3012 14.8458 33.022C17.4838 34.5608 18.2875 34.6246 20.5 34.6246C22.4667 34.6246 22.9568 34.6246 25.1593 33.5562C25.6788 33.3042 26.1756 33.0114 26.6458 32.6819C29.1042 30.9589 31.3812 27.3139 31.3812 23.5023V22.7608Z" fill="white"/>
<path d="M20.5 34.6246C18.2875 34.6246 17.4838 34.5608 14.8458 33.022L14.0949 36.8093C13.9745 37.4164 14.4382 37.9825 15.0572 37.9839L26.4527 38.0096C27.0656 38.011 27.5304 37.4574 27.423 36.854L27.1375 35.25L26.6458 32.6819C26.1756 33.0114 25.6788 33.3042 25.1593 33.5562C22.9568 34.6246 22.4667 34.6246 20.5 34.6246Z" fill="white"/>
<path d="M29.4467 2.98779H11.5533C10.4849 2.98779 9.61885 3.87306 9.61885 4.96509V18.8062H31.3812V4.96509C31.3812 3.87306 30.5151 2.98779 29.4467 2.98779Z" fill="#D9D9D9"/>
<path d="M31.3812 18.8062H9.61885H7.68443C6.61607 18.8062 5.75 19.6914 5.75 20.7835C5.75 21.8755 6.61607 22.7608 7.68443 22.7608H9.61885H31.3812H33.3156C34.3839 22.7608 35.25 21.8755 35.25 20.7835C35.25 19.6914 34.3839 18.8062 33.3156 18.8062H31.3812Z" fill="#D9D9D9"/>
<path d="M31.3812 18.8062V4.96509C31.3812 3.87306 30.5151 2.98779 29.4467 2.98779H11.5533C10.4849 2.98779 9.61885 3.87306 9.61885 4.96509V18.8062M31.3812 18.8062H9.61885M31.3812 18.8062H33.3156C34.3839 18.8062 35.25 19.6914 35.25 20.7835C35.25 21.8755 34.3839 22.7608 33.3156 22.7608M9.61885 18.8062H7.68443C6.61607 18.8062 5.75 19.6914 5.75 20.7835C5.75 21.8755 6.61607 22.7608 7.68443 22.7608M33.3156 22.7608H7.68443M33.3156 22.7608H31.3812M7.68443 22.7608H9.61885M9.61885 22.7608V23.5023C9.61885 27.3526 11.8958 31.3012 14.8458 33.022M9.61885 22.7608H31.3812M31.3812 22.7608V23.5023C31.3812 27.3139 29.1042 30.9589 26.6458 32.6819M27.9959 6.94239H24.1271M14.8458 33.022C17.4838 34.5608 18.2875 34.6246 20.5 34.6246C22.4667 34.6246 22.9568 34.6246 25.1593 33.5562C25.6788 33.3042 26.1756 33.0114 26.6458 32.6819M14.8458 33.022L14.0949 36.8093C13.9745 37.4164 14.4382 37.9825 15.0572 37.9839L26.4527 38.0096C27.0656 38.011 27.5304 37.4574 27.423 36.854L27.1375 35.25L26.6458 32.6819" stroke="black" stroke-width="1.96667" stroke-linecap="round"/>
</svg>
