<svg width="25" height="28" viewBox="0 0 25 28" fill="none" xmlns="http://www.w3.org/2000/svg">
<path fill-rule="evenodd" clip-rule="evenodd" d="M8.64583 0C5.88441 0 3.64583 2.23858 3.64583 5.00001V12.4444H4.09949L4.09945 12.4445H1.81482C0.81252 12.4445 0 13.257 0 14.2593C0 15.2616 0.812521 16.0742 1.81482 16.0742H3.13922C3.12978 16.2458 3.125 16.4186 3.125 16.5926C3.125 20.1781 5.15584 23.2914 8.13483 24.8546C8.11176 24.8929 8.09109 24.9331 8.07306 24.975L7.37153 26.6046C7.08739 27.2646 7.57143 28 8.29004 28H16.71C17.4286 28 17.9126 27.2646 17.6285 26.6046L16.9269 24.975C16.9089 24.9331 16.8882 24.8929 16.8652 24.8546C19.8442 23.2914 21.875 20.1781 21.875 16.5926C21.875 16.4186 21.8702 16.2458 21.8608 16.0742H23.1852C24.1875 16.0742 25 15.2616 25 14.2593C25 13.257 24.1875 12.4445 23.1852 12.4445H20.9005L20.9005 12.4444H21.875V5C21.875 2.23858 19.6364 0 16.875 0H8.64583Z" fill="#FFDA07"/>
</svg>
